<svg width="24" height="24" viewBox="0 0 24 24" fill="none" xmlns="http://www.w3.org/2000/svg">
<path fill-rule="evenodd" clip-rule="evenodd" d="M4.4801 1.59998H4.4001C4.0337 1.59998 3.7185 1.59998 3.4401 1.66558C3.00912 1.76856 2.61506 1.98885 2.30159 2.30204C1.98812 2.61523 1.76747 3.00909 1.6641 3.43998C1.6001 3.71838 1.6001 4.03198 1.6001 4.39998V8.39998C1.6001 8.76638 1.6001 9.08158 1.6657 9.35998C1.76868 9.79096 1.98897 10.185 2.30216 10.4985C2.61535 10.812 3.00921 11.0326 3.4401 11.136C3.7185 11.2 4.0321 11.2 4.4001 11.2H8.4001C8.7665 11.2 9.0817 11.2 9.3601 11.1344C9.79108 11.0314 10.1851 10.8111 10.4986 10.4979C10.8121 10.1847 11.0327 9.79086 11.1361 9.35998C11.2001 9.08158 11.2001 8.76798 11.2001 8.39998V4.39998C11.2001 4.03358 11.2001 3.71838 11.1345 3.43998C11.0315 3.00899 10.8112 2.61494 10.498 2.30146C10.1848 1.98799 9.79099 1.76735 9.3601 1.66398C9.0817 1.59998 8.7681 1.59998 8.4001 1.59998H4.4801ZM3.8129 3.22238C3.8817 3.20638 3.9889 3.19998 4.4801 3.19998H8.3201C8.8129 3.19998 8.9185 3.20478 8.9873 3.22238C9.13103 3.25675 9.26242 3.33026 9.36692 3.43475C9.47142 3.53925 9.54493 3.67065 9.5793 3.81438C9.5953 3.88158 9.6001 3.98718 9.6001 4.47998V8.31998C9.6001 8.81278 9.5953 8.91838 9.5777 8.98718C9.54333 9.1309 9.46982 9.2623 9.36532 9.3668C9.26082 9.47129 9.12943 9.54481 8.9857 9.57918C8.9201 9.59358 8.8145 9.59998 8.3201 9.59998H4.4801C3.9873 9.59998 3.8817 9.59518 3.8129 9.57758C3.66917 9.54321 3.53777 9.4697 3.43327 9.3652C3.32878 9.2607 3.25527 9.1293 3.2209 8.98558C3.2065 8.91998 3.2001 8.81438 3.2001 8.31998V4.47998C3.2001 3.98718 3.2049 3.88158 3.2225 3.81278C3.25687 3.66905 3.33038 3.53765 3.43487 3.43315C3.53937 3.32866 3.67077 3.25515 3.8145 3.22078M15.6801 1.59998H15.6001C15.2337 1.59998 14.9185 1.59998 14.6401 1.66558C14.2091 1.76856 13.8151 1.98885 13.5016 2.30204C13.1881 2.61523 12.9675 3.00909 12.8641 3.43998C12.8001 3.71838 12.8001 4.03198 12.8001 4.39998V8.39998C12.8001 8.76638 12.8001 9.08158 12.8657 9.35998C12.9687 9.79096 13.189 10.185 13.5022 10.4985C13.8154 10.812 14.2092 11.0326 14.6401 11.136C14.9185 11.2 15.2321 11.2 15.6001 11.2H19.6001C19.9665 11.2 20.2817 11.2 20.5601 11.1344C20.9911 11.0314 21.3851 10.8111 21.6986 10.4979C22.0121 10.1847 22.2327 9.79086 22.3361 9.35998C22.4001 9.08158 22.4001 8.76798 22.4001 8.39998V4.39998C22.4001 4.03358 22.4001 3.71838 22.3345 3.43998C22.2315 3.00899 22.0112 2.61494 21.698 2.30146C21.3848 1.98799 20.991 1.76735 20.5601 1.66398C20.2817 1.59998 19.9681 1.59998 19.6001 1.59998H15.6801ZM15.0129 3.22238C15.0817 3.20638 15.1889 3.19998 15.6801 3.19998H19.5201C20.0129 3.19998 20.1185 3.20478 20.1873 3.22238C20.331 3.25675 20.4624 3.33026 20.5669 3.43475C20.6714 3.53925 20.7449 3.67065 20.7793 3.81438C20.7953 3.88158 20.8001 3.98718 20.8001 4.47998V8.31998C20.8001 8.81278 20.7937 8.91838 20.7777 8.98718C20.7433 9.1309 20.6698 9.2623 20.5653 9.3668C20.4608 9.47129 20.3294 9.54481 20.1857 9.57918C20.1185 9.59518 20.0129 9.59998 19.5201 9.59998H15.6801C15.1873 9.59998 15.0817 9.59518 15.0129 9.57758C14.8692 9.54321 14.7378 9.4697 14.6333 9.3652C14.5288 9.2607 14.4553 9.1293 14.4209 8.98558C14.4065 8.91998 14.4001 8.81438 14.4001 8.31998V4.47998C14.4001 3.98718 14.4049 3.88158 14.4225 3.81278C14.4569 3.66905 14.5304 3.53765 14.6349 3.43315C14.7394 3.32866 14.8708 3.25515 15.0145 3.22078M4.4001 12.8H8.4001C8.7665 12.8 9.0817 12.8 9.3601 12.8656C9.79108 12.9686 10.1851 13.1888 10.4986 13.502C10.8121 13.8152 11.0327 14.2091 11.1361 14.64C11.2001 14.9184 11.2001 15.232 11.2001 15.6V19.6C11.2001 19.9664 11.2001 20.2816 11.1345 20.56C11.0315 20.991 10.8112 21.385 10.498 21.6985C10.1848 22.012 9.79099 22.2326 9.3601 22.336C9.0817 22.4 8.7681 22.4 8.4001 22.4H4.4001C4.0337 22.4 3.7185 22.4 3.4401 22.3344C3.00912 22.2314 2.61506 22.0111 2.30159 21.6979C1.98812 21.3847 1.76747 20.9909 1.6641 20.56C1.6001 20.2816 1.6001 19.968 1.6001 19.6V15.6C1.6001 15.2336 1.6001 14.9184 1.6657 14.64C1.76868 14.209 1.98897 13.8149 2.30216 13.5015C2.61535 13.188 3.00921 12.9673 3.4401 12.864C3.7185 12.8 4.0321 12.8 4.4001 12.8ZM4.4801 14.4C3.9873 14.4 3.8817 14.4048 3.8129 14.4224C3.66917 14.4567 3.53777 14.5303 3.43327 14.6348C3.32878 14.7392 3.25527 14.8706 3.2209 15.0144C3.2065 15.08 3.2001 15.1856 3.2001 15.68V19.52C3.2001 20.0128 3.2049 20.1184 3.2225 20.1872C3.25687 20.3309 3.33038 20.4623 3.43487 20.5668C3.53937 20.6713 3.67077 20.7448 3.8145 20.7792C3.8817 20.7952 3.9873 20.8 4.4801 20.8H8.3201C8.8129 20.8 8.9185 20.7936 8.9873 20.7776C9.13103 20.7432 9.26242 20.6697 9.36692 20.5652C9.47142 20.4607 9.54493 20.3293 9.5793 20.1856C9.5953 20.1184 9.6001 20.0128 9.6001 19.52V15.68C9.6001 15.1872 9.5953 15.0816 9.5777 15.0128C9.54333 14.869 9.46982 14.7376 9.36532 14.6332C9.26082 14.5287 9.12943 14.4551 8.9857 14.4208C8.9201 14.4064 8.8145 14.4 8.3201 14.4H4.4801ZM15.6801 12.8H15.6001C15.2337 12.8 14.9185 12.8 14.6401 12.8656C14.2091 12.9686 13.8151 13.1888 13.5016 13.502C13.1881 13.8152 12.9675 14.2091 12.8641 14.64C12.8001 14.9184 12.8001 15.232 12.8001 15.6V19.6C12.8001 19.9664 12.8001 20.2816 12.8657 20.56C12.9687 20.991 13.189 21.385 13.5022 21.6985C13.8154 22.012 14.2092 22.2326 14.6401 22.336C14.9185 22.4016 15.2337 22.4016 15.6001 22.4016H19.6001C19.9665 22.4016 20.2817 22.4016 20.5601 22.336C20.9908 22.2327 21.3845 22.0123 21.6977 21.6992C22.0108 21.386 22.2313 20.9923 22.3345 20.5616C22.4001 20.2832 22.4001 19.968 22.4001 19.6016V15.6016C22.4001 15.2352 22.4001 14.92 22.3345 14.6416C22.2318 14.2103 22.0116 13.8159 21.6984 13.5021C21.3852 13.1884 20.9912 12.9675 20.5601 12.864C20.2817 12.8 19.9681 12.8 19.6001 12.8H15.6801ZM15.0129 14.4224C15.0817 14.4064 15.1889 14.4 15.6801 14.4H19.5201C20.0129 14.4 20.1185 14.4048 20.1873 14.4224C20.331 14.4567 20.4624 14.5303 20.5669 14.6348C20.6714 14.7392 20.7449 14.8706 20.7793 15.0144C20.7953 15.0816 20.8001 15.1872 20.8001 15.68V19.52C20.8001 20.0128 20.7937 20.1184 20.7777 20.1872C20.7433 20.3309 20.6698 20.4623 20.5653 20.5668C20.4608 20.6713 20.3294 20.7448 20.1857 20.7792C20.1185 20.7952 20.0129 20.8 19.5201 20.8H15.6801C15.1873 20.8 15.0817 20.7936 15.0129 20.7776C14.8692 20.7432 14.7378 20.6697 14.6333 20.5652C14.5288 20.4607 14.4553 20.3293 14.4209 20.1856C14.4065 20.12 14.4001 20.0144 14.4001 19.52V15.68C14.4001 15.1872 14.4049 15.0816 14.4225 15.0128C14.4569 14.869 14.5304 14.7376 14.6349 14.6332C14.7394 14.5287 14.8708 14.4551 15.0145 14.4208" fill="black"/>
</svg>
