<svg width="24" height="24" viewBox="0 0 24 24" fill="none" xmlns="http://www.w3.org/2000/svg">
<path d="M12.1275 3.99375L8.4975 7.66875C7.89375 8.27812 7.7775 9.375 8.235 10.1578C8.71875 10.9922 9.66 11.1562 10.3088 10.5234L14.0325 6.90469C14.295 6.65156 14.67 6.70781 14.8763 7.03594C15.0825 7.36406 15.0338 7.83281 14.7713 8.09062L13.9875 8.85L20.6325 16.5H22.2C23.1938 16.5 24 15.4922 24 14.25V8.25C24 7.00781 23.1938 6 22.2 6H19.1738L19.0275 5.88281L16.305 3.70312C15.7313 3.24375 15.06 3 14.3775 3C13.56 3 12.765 3.35156 12.1275 3.99375ZM12.9825 9.825L11.0438 11.7094C9.8625 12.8625 8.14875 12.5625 7.26375 11.0437C6.43125 9.61406 6.64125 7.61719 7.74 6.50625L10.86 3.35156C10.425 3.12187 9.95625 3.00469 9.48 3.00469C8.775 3 8.08875 3.2625 7.5 3.75L4.8 6H1.8C0.80625 6 0 7.00781 0 8.25V14.25C0 15.4922 0.80625 16.5 1.8 16.5H5.8575L9.285 20.4094C10.02 21.2484 11.1563 21.1828 11.8275 20.2641C12.0338 19.9781 12.1725 19.6453 12.2438 19.2984L12.8813 20.0297C13.6125 20.8687 14.7525 20.8078 15.4238 19.8937C15.5925 19.6641 15.7163 19.3969 15.795 19.1203C16.5225 19.7297 17.5125 19.6031 18.1238 18.7687C18.795 17.8547 18.7463 16.4297 18.015 15.5906L12.9825 9.825Z" fill="black"/>
</svg>
