<svg width="24" height="24" viewBox="0 0 24 24" fill="none" xmlns="http://www.w3.org/2000/svg">
<path d="M12 10.5C10.9391 10.5 9.92172 10.1049 9.17157 9.40165C8.42143 8.69839 8 7.74456 8 6.75C8 5.75544 8.42143 4.80161 9.17157 4.09835C9.92172 3.39509 10.9391 3 12 3C13.0609 3 14.0783 3.39509 14.8284 4.09835C15.5786 4.80161 16 5.75544 16 6.75C16 7.74456 15.5786 8.69839 14.8284 9.40165C14.0783 10.1049 13.0609 10.5 12 10.5ZM12 4.5C10.672 4.5 9.6 5.505 9.6 6.75C9.6 7.995 10.672 9 12 9C13.328 9 14.4 7.995 14.4 6.75C14.4 5.505 13.328 4.5 12 4.5Z" fill="black"/>
<path d="M21.6 16.5C21.152 16.5 20.8 16.17 20.8 15.75C20.8 15.33 21.152 15 21.6 15C22.048 15 22.4 14.67 22.4 14.25C22.4 13.2554 21.9786 12.3016 21.2284 11.5983C20.4783 10.8951 19.4609 10.5 18.4 10.5H16.8C16.352 10.5 16 10.17 16 9.75C16 9.33 16.352 9 16.8 9C18.128 9 19.2 7.995 19.2 6.75C19.2 5.505 18.128 4.5 16.8 4.5C16.352 4.5 16 4.17 16 3.75C16 3.33 16.352 3 16.8 3C17.8609 3 18.8783 3.39509 19.6284 4.09835C20.3786 4.80161 20.8 5.75544 20.8 6.75C20.8 7.68 20.448 8.52 19.84 9.18C22.224 9.78 24 11.82 24 14.25C24 15.495 22.928 16.5 21.6 16.5ZM2.4 16.5C1.072 16.5 0 15.495 0 14.25C0 11.82 1.76 9.78 4.16 9.18C3.568 8.52 3.2 7.68 3.2 6.75C3.2 5.75544 3.62143 4.80161 4.37157 4.09835C5.12172 3.39509 6.13913 3 7.2 3C7.648 3 8 3.33 8 3.75C8 4.17 7.648 4.5 7.2 4.5C5.872 4.5 4.8 5.505 4.8 6.75C4.8 7.995 5.872 9 7.2 9C7.648 9 8 9.33 8 9.75C8 10.17 7.648 10.5 7.2 10.5H5.6C4.53913 10.5 3.52172 10.8951 2.77157 11.5983C2.02143 12.3016 1.6 13.2554 1.6 14.25C1.6 14.67 1.952 15 2.4 15C2.848 15 3.2 15.33 3.2 15.75C3.2 16.17 2.848 16.5 2.4 16.5ZM16.8 21H7.2C5.872 21 4.8 19.995 4.8 18.75V17.25C4.8 14.355 7.312 12 10.4 12H13.6C16.688 12 19.2 14.355 19.2 17.25V18.75C19.2 19.995 18.128 21 16.8 21ZM10.4 13.5C9.33913 13.5 8.32172 13.8951 7.57157 14.5983C6.82143 15.3016 6.4 16.2554 6.4 17.25V18.75C6.4 19.17 6.752 19.5 7.2 19.5H16.8C17.248 19.5 17.6 19.17 17.6 18.75V17.25C17.6 16.2554 17.1786 15.3016 16.4284 14.5983C15.6783 13.8951 14.6609 13.5 13.6 13.5H10.4Z" fill="black"/>
</svg>
