<svg width="24" height="24" viewBox="0 0 24 24" fill="none" xmlns="http://www.w3.org/2000/svg">
<g clip-path="url(#clip0_441_5)">
<path d="M4.0001 10.4V9.6H3.2001V10.4H4.0001ZM4.0001 16.8H3.2001V17.6H4.0001V16.8ZM20.0001 10.4H20.8001V9.6H20.0001V10.4ZM20.0001 16.8V17.6H20.8001V16.8H20.0001ZM21.6001 5.6H22.4001V5.2688L22.1665 5.0336L21.6001 5.6ZM16.8001 0.8L17.3665 0.2336L17.1313 0H16.8001V0.8ZM3.2001 10.4V16.8H4.8001V10.4H3.2001ZM4.0001 17.6H5.6001V16H4.0001V17.6ZM8.0001 15.2V12H6.4001V15.2H8.0001ZM5.6001 9.6H4.0001V11.2H5.6001V9.6ZM8.0001 12C8.0001 11.3635 7.74724 10.753 7.29715 10.3029C6.84707 9.85286 6.23662 9.6 5.6001 9.6V11.2C5.81227 11.2 6.01575 11.2843 6.16578 11.4343C6.31581 11.5843 6.4001 11.7878 6.4001 12H8.0001ZM5.6001 17.6C6.23662 17.6 6.84707 17.3471 7.29715 16.8971C7.74724 16.447 8.0001 15.8365 8.0001 15.2H6.4001C6.4001 15.4122 6.31581 15.6157 6.16578 15.7657C6.01575 15.9157 5.81227 16 5.6001 16V17.6ZM9.6001 12V15.2H11.2001V12H9.6001ZM14.4001 15.2V12H12.8001V15.2H14.4001ZM14.4001 12C14.4001 11.3635 14.1472 10.753 13.6972 10.3029C13.2471 9.85286 12.6366 9.6 12.0001 9.6V11.2C12.2123 11.2 12.4158 11.2843 12.5658 11.4343C12.7158 11.5843 12.8001 11.7878 12.8001 12H14.4001ZM12.0001 17.6C12.6366 17.6 13.2471 17.3471 13.6972 16.8971C14.1472 16.447 14.4001 15.8365 14.4001 15.2H12.8001C12.8001 15.4122 12.7158 15.6157 12.5658 15.7657C12.4158 15.9157 12.2123 16 12.0001 16V17.6ZM9.6001 15.2C9.6001 15.8365 9.85295 16.447 10.303 16.8971C10.7531 17.3471 11.3636 17.6 12.0001 17.6V16C11.7879 16 11.5844 15.9157 11.4344 15.7657C11.2844 15.6157 11.2001 15.4122 11.2001 15.2H9.6001ZM11.2001 12C11.2001 11.7878 11.2844 11.5843 11.4344 11.4343C11.5844 11.2843 11.7879 11.2 12.0001 11.2V9.6C11.3636 9.6 10.7531 9.85286 10.303 10.3029C9.85295 10.753 9.6001 11.3635 9.6001 12H11.2001ZM16.0001 9.6V17.6H17.6001V9.6H16.0001ZM16.8001 11.2H20.0001V9.6H16.8001V11.2ZM19.2001 10.4V12.8H20.8001V10.4H19.2001ZM16.8001 17.6H20.0001V16H16.8001V17.6ZM20.8001 16.8V14.4H19.2001V16.8H20.8001ZM3.2001 8V2.4H1.6001V8H3.2001ZM20.8001 5.6V8H22.4001V5.6H20.8001ZM4.0001 1.6H16.8001V0H4.0001V1.6ZM16.2337 1.3664L21.0337 6.1664L22.1665 5.0336L17.3665 0.2336L16.2337 1.3664ZM3.2001 2.4C3.2001 2.18783 3.28438 1.98434 3.43441 1.83431C3.58444 1.68429 3.78792 1.6 4.0001 1.6V0C3.36358 0 2.75313 0.252856 2.30304 0.702944C1.85295 1.15303 1.6001 1.76348 1.6001 2.4H3.2001ZM1.6001 19.2V21.6H3.2001V19.2H1.6001ZM4.0001 24H20.0001V22.4H4.0001V24ZM22.4001 21.6V19.2H20.8001V21.6H22.4001ZM20.0001 24C20.6366 24 21.2471 23.7471 21.6972 23.2971C22.1472 22.847 22.4001 22.2365 22.4001 21.6H20.8001C20.8001 21.8122 20.7158 22.0157 20.5658 22.1657C20.4158 22.3157 20.2123 22.4 20.0001 22.4V24ZM1.6001 21.6C1.6001 22.2365 1.85295 22.847 2.30304 23.2971C2.75313 23.7471 3.36358 24 4.0001 24V22.4C3.78792 22.4 3.58444 22.3157 3.43441 22.1657C3.28438 22.0157 3.2001 21.8122 3.2001 21.6H1.6001Z" fill="black"/>
</g>
<defs>
<clipPath id="clip0_441_5">
<rect width="24" height="24" fill="white"/>
</clipPath>
</defs>
</svg>
