<svg width="24" height="24" viewBox="0 0 24 24" fill="none" xmlns="http://www.w3.org/2000/svg">
<path fill-rule="evenodd" clip-rule="evenodd" d="M16 6H8C5.172 6 3.757 6 2.879 6.879C2 7.757 2 9.172 2 12C2 14.828 2 16.243 2.879 17.121C3.373 17.616 4.037 17.832 5.028 17.927C5 17.204 5 15.352 5 14.5C4.86739 14.5 4.74021 14.4473 4.64645 14.3536C4.55268 14.2598 4.5 14.1326 4.5 14C4.5 13.8674 4.55268 13.7402 4.64645 13.6464C4.74021 13.5527 4.86739 13.5 5 13.5H19C19.1326 13.5 19.2598 13.5527 19.3536 13.6464C19.4473 13.7402 19.5 13.8674 19.5 14C19.5 14.1326 19.4473 14.2598 19.3536 14.3536C19.2598 14.4473 19.1326 14.5 19 14.5C19 15.352 19 17.204 18.972 17.927C19.962 17.832 20.627 17.616 21.122 17.121C22 16.243 22 14.828 22 12C22 9.172 22 7.757 21.121 6.879C20.243 6 18.828 6 16 6ZM9 10.75C9.19891 10.75 9.38968 10.671 9.53033 10.5303C9.67098 10.3897 9.75 10.1989 9.75 10C9.75 9.80109 9.67098 9.61032 9.53033 9.46967C9.38968 9.32902 9.19891 9.25 9 9.25H6C5.80109 9.25 5.61032 9.32902 5.46967 9.46967C5.32902 9.61032 5.25 9.80109 5.25 10C5.25 10.1989 5.32902 10.3897 5.46967 10.5303C5.61032 10.671 5.80109 10.75 6 10.75H9ZM17 11C17.2652 11 17.5196 10.8946 17.7071 10.7071C17.8946 10.5196 18 10.2652 18 10C18 9.73478 17.8946 9.48043 17.7071 9.29289C17.5196 9.10536 17.2652 9 17 9C16.7348 9 16.4804 9.10536 16.2929 9.29289C16.1054 9.48043 16 9.73478 16 10C16 10.2652 16.1054 10.5196 16.2929 10.7071C16.4804 10.8946 16.7348 11 17 11Z" fill="black"/>
<path d="M17.1212 2.879C16.2422 2 14.8282 2 12.0002 2C9.17222 2 7.75722 2 6.87822 2.879C6.38622 3.371 6.17022 4.032 6.07422 5.015C6.63422 5 7.25222 5 7.93022 5H16.0722C16.7492 5 17.3672 5 17.9262 5.015C17.8312 4.032 17.6132 3.371 17.1212 2.879Z" fill="black"/>
<path fill-rule="evenodd" clip-rule="evenodd" d="M18 14.5C18 17.328 18 20.243 17.121 21.121C16.243 22 14.828 22 12 22C9.172 22 7.757 22 6.879 21.121C6 20.243 6 17.328 6 14.5H18ZM15.75 16.75C15.75 16.9489 15.671 17.1397 15.5303 17.2803C15.3897 17.421 15.1989 17.5 15 17.5H9C8.80109 17.5 8.61032 17.421 8.46967 17.2803C8.32902 17.1397 8.25 16.9489 8.25 16.75C8.25 16.5511 8.32902 16.3603 8.46967 16.2197C8.61032 16.079 8.80109 16 9 16H15C15.1989 16 15.3897 16.079 15.5303 16.2197C15.671 16.3603 15.75 16.5511 15.75 16.75ZM13.75 19.75C13.75 19.9489 13.671 20.1397 13.5303 20.2803C13.3897 20.421 13.1989 20.5 13 20.5H9C8.80109 20.5 8.61032 20.421 8.46967 20.2803C8.32902 20.1397 8.25 19.9489 8.25 19.75C8.25 19.5511 8.32902 19.3603 8.46967 19.2197C8.61032 19.079 8.80109 19 9 19H13C13.1989 19 13.3897 19.079 13.5303 19.2197C13.671 19.3603 13.75 19.5511 13.75 19.75Z" fill="black"/>
</svg>
