<svg width="24" height="24" viewBox="0 0 24 24" fill="none" xmlns="http://www.w3.org/2000/svg">
<g clip-path="url(#clip0_470_5)">
<path d="M0 0V8.30769H8.30769V0H0ZM10.1538 0V1.84615H12V0H10.1538ZM12 1.84615V3.69231H10.1538V7.38462H12V5.53846H13.8462V1.84615H12ZM12 7.38462V10.1538H3.69231V12H1.84615V13.8462H5.53846V12H7.38462V13.8462H12V12H13.8462V13.8462H16.6154V12H18.4615V10.1538H13.8462V7.38462H12ZM18.4615 12V13.8462H24V12H22.1538V10.1538H20.3077V12H18.4615ZM1.84615 12V10.1538H0V12H1.84615ZM15.6923 0V8.30769H24V0H15.6923ZM1.84615 1.84615H6.46154V6.46154H1.84615V1.84615ZM17.5385 1.84615H22.1538V6.46154H17.5385V1.84615ZM2.76923 2.76923V5.53846H5.53846V2.76923H2.76923ZM18.4615 2.76923V5.53846H21.2308V2.76923H18.4615ZM10.1538 14.7692V16.6154H12V14.7692H10.1538ZM12 16.6154V18.4615H10.1538V22.1538H12V20.3077H15.6923V18.4615H17.5385V16.6154H19.3846V18.4615H17.5385V20.3077H15.6923V24H17.5385V22.1538H19.3846V20.3077H20.3077V22.1538H19.3846V24H21.2308V22.1538H22.1538V20.3077H24V16.6154H22.1538V14.7692H15.6923V16.6154H12ZM22.1538 22.1538V24H24V22.1538H22.1538ZM12 22.1538V24H13.8462V22.1538H12ZM0 15.6923V24H8.30769V15.6923H0ZM1.84615 17.5385H6.46154V22.1538H1.84615V17.5385ZM2.76923 18.4615V21.2308H5.53846V18.4615H2.76923Z" fill="black"/>
</g>
<defs>
<clipPath id="clip0_470_5">
<rect width="24" height="24" fill="white"/>
</clipPath>
</defs>
</svg>
