<svg width="30" height="24" viewBox="0 0 30 24" fill="none" xmlns="http://www.w3.org/2000/svg">
<path d="M15.1594 3.99375L10.6219 7.66875C9.86719 8.27812 9.72188 9.375 10.2938 10.1578C10.8984 10.9922 12.075 11.1562 12.8859 10.5234L17.5406 6.90469C17.8688 6.65156 18.3375 6.70781 18.5953 7.03594C18.8531 7.36406 18.7922 7.83281 18.4641 8.09062L17.4844 8.85L25.7906 16.5H27.75C28.9922 16.5 30 15.4922 30 14.25V8.25C30 7.00781 28.9922 6 27.75 6H23.9672L23.7844 5.88281L20.3812 3.70312C19.6641 3.24375 18.825 3 17.9719 3C16.95 3 15.9562 3.35156 15.1594 3.99375ZM16.2281 9.825L13.8047 11.7094C12.3281 12.8625 10.1859 12.5625 9.07969 11.0437C8.03906 9.61406 8.30156 7.61719 9.675 6.50625L13.575 3.35156C13.0312 3.12187 12.4453 3.00469 11.85 3.00469C10.9688 3 10.1109 3.2625 9.375 3.75L6 6H2.25C1.00781 6 0 7.00781 0 8.25V14.25C0 15.4922 1.00781 16.5 2.25 16.5H7.32187L11.6063 20.4094C12.525 21.2484 13.9453 21.1828 14.7844 20.2641C15.0422 19.9781 15.2156 19.6453 15.3047 19.2984L16.1016 20.0297C17.0156 20.8687 18.4406 20.8078 19.2797 19.8937C19.4906 19.6641 19.6453 19.3969 19.7438 19.1203C20.6531 19.7297 21.8906 19.6031 22.6547 18.7687C23.4937 17.8547 23.4328 16.4297 22.5187 15.5906L16.2281 9.825Z" fill="black"/>
</svg>
