<svg width="23" height="24" viewBox="0 0 23 24" fill="none" xmlns="http://www.w3.org/2000/svg">
<g clip-path="url(#clip0_51_13)">
<path d="M11.25 10.5C10.2554 10.5 9.30161 10.1049 8.59835 9.40165C7.89509 8.69839 7.5 7.74456 7.5 6.75C7.5 5.75544 7.89509 4.80161 8.59835 4.09835C9.30161 3.39509 10.2554 3 11.25 3C12.2446 3 13.1984 3.39509 13.9017 4.09835C14.6049 4.80161 15 5.75544 15 6.75C15 7.74456 14.6049 8.69839 13.9017 9.40165C13.1984 10.1049 12.2446 10.5 11.25 10.5ZM11.25 4.5C10.005 4.5 9 5.505 9 6.75C9 7.995 10.005 9 11.25 9C12.495 9 13.5 7.995 13.5 6.75C13.5 5.505 12.495 4.5 11.25 4.5Z" fill="black"/>
<path d="M20.25 16.5C19.83 16.5 19.5 16.17 19.5 15.75C19.5 15.33 19.83 15 20.25 15C20.67 15 21 14.67 21 14.25C21 13.2554 20.6049 12.3016 19.9016 11.5983C19.1984 10.8951 18.2446 10.5 17.25 10.5H15.75C15.33 10.5 15 10.17 15 9.75C15 9.33 15.33 9 15.75 9C16.995 9 18 7.995 18 6.75C18 5.505 16.995 4.5 15.75 4.5C15.33 4.5 15 4.17 15 3.75C15 3.33 15.33 3 15.75 3C16.7446 3 17.6984 3.39509 18.4016 4.09835C19.1049 4.80161 19.5 5.75544 19.5 6.75C19.5 7.68 19.17 8.52 18.6 9.18C20.835 9.78 22.5 11.82 22.5 14.25C22.5 15.495 21.495 16.5 20.25 16.5ZM2.25 16.5C1.005 16.5 0 15.495 0 14.25C0 11.82 1.65 9.78 3.9 9.18C3.345 8.52 3 7.68 3 6.75C3 5.75544 3.39509 4.80161 4.09835 4.09835C4.80161 3.39509 5.75544 3 6.75 3C7.17 3 7.5 3.33 7.5 3.75C7.5 4.17 7.17 4.5 6.75 4.5C5.505 4.5 4.5 5.505 4.5 6.75C4.5 7.995 5.505 9 6.75 9C7.17 9 7.5 9.33 7.5 9.75C7.5 10.17 7.17 10.5 6.75 10.5H5.25C4.25544 10.5 3.30161 10.8951 2.59835 11.5983C1.89509 12.3016 1.5 13.2554 1.5 14.25C1.5 14.67 1.83 15 2.25 15C2.67 15 3 15.33 3 15.75C3 16.17 2.67 16.5 2.25 16.5ZM15.75 21H6.75C5.505 21 4.5 19.995 4.5 18.75V17.25C4.5 14.355 6.855 12 9.75 12H12.75C15.645 12 18 14.355 18 17.25V18.75C18 19.995 16.995 21 15.75 21ZM9.75 13.5C8.75544 13.5 7.80161 13.8951 7.09835 14.5983C6.39509 15.3016 6 16.2554 6 17.25V18.75C6 19.17 6.33 19.5 6.75 19.5H15.75C16.17 19.5 16.5 19.17 16.5 18.75V17.25C16.5 16.2554 16.1049 15.3016 15.4017 14.5983C14.6984 13.8951 13.7446 13.5 12.75 13.5H9.75Z" fill="black"/>
</g>
<defs>
<clipPath id="clip0_51_13">
<rect width="22.5" height="24" fill="white"/>
</clipPath>
</defs>
</svg>
