<svg width="24" height="24" viewBox="0 0 24 24" fill="none" xmlns="http://www.w3.org/2000/svg">
<path d="M6 3.75C3.525 3.75 1.5 5.775 1.5 8.25C1.5 9.75 2.25 11.1 3.375 11.85C1.35 12.9 0 14.925 0 17.25H1.5C1.5 14.775 3.525 12.75 6 12.75C8.475 12.75 10.5 14.775 10.5 17.25H12C12 14.85 13.95 12.825 16.35 12.75H16.5C18.375 12.75 19.95 11.625 20.625 10.05C20.625 10.05 20.625 9.975 20.7 9.975C20.775 9.9 20.775 9.75 20.775 9.675C20.775 9.6 20.775 9.6 20.85 9.525C20.85 9.45 20.925 9.3 20.925 9.225C20.925 9.15 20.925 9.075 21 9C21 8.925 21 8.85 21.075 8.775V8.325C21.075 5.85 19.05 3.825 16.575 3.825C14.1 3.825 12.075 5.85 12.075 8.325C12.075 9.825 12.825 11.175 13.95 11.925C12.825 12.45 11.925 13.35 11.325 14.4C10.725 13.35 9.825 12.45 8.7 11.925C9.75 11.1 10.5 9.75 10.5 8.25C10.5 5.775 8.475 3.75 6 3.75ZM6 5.25C7.65 5.25 9 6.6 9 8.25C9 9.9 7.65 11.25 6 11.25C4.35 11.25 3 9.9 3 8.25C3 6.6 4.35 5.25 6 5.25ZM16.5 5.25C18.15 5.25 19.5 6.6 19.5 8.25C19.5 9.9 18.15 11.25 16.5 11.25C14.85 11.25 13.5 9.9 13.5 8.25C13.5 6.6 14.85 5.25 16.5 5.25ZM18.075 13.5V15.075C17.625 15.15 17.175 15.375 16.8 15.6L15.675 14.475L14.625 15.525L15.75 16.65C15.45 17.025 15.3 17.475 15.225 18H13.5V19.5H15.075C15.15 19.95 15.375 20.4 15.6 20.85L14.475 21.975L15.525 23.025L16.65 21.9C17.025 22.125 17.475 22.35 17.925 22.425V24H19.425V22.425C19.875 22.35 20.325 22.125 20.7 21.9L21.825 23.025L22.875 21.975L21.75 20.85C22.05 20.475 22.2 20.025 22.275 19.5H24V18H22.425C22.35 17.55 22.125 17.1 21.9 16.65L23.025 15.525L21.975 14.475L20.85 15.6C20.475 15.375 20.025 15.15 19.575 15.075V13.5H18.075ZM18.75 16.5C20.025 16.5 21 17.475 21 18.75C21 20.025 20.025 21 18.75 21C17.475 21 16.5 20.025 16.5 18.75C16.5 17.475 17.475 16.5 18.75 16.5ZM18.75 18C18.6547 18.0018 18.5609 18.0238 18.4748 18.0645C18.3852 18.1064 18.3039 18.1641 18.2347 18.2347C18.1641 18.3039 18.1064 18.3852 18.0645 18.4747C18.0238 18.5609 18.0018 18.6547 18 18.75C18.001 18.845 18.0225 18.9368 18.0645 19.0253C18.1058 19.113 18.1642 19.1955 18.2347 19.2653C18.3045 19.3358 18.387 19.3942 18.4748 19.4355C18.5609 19.4762 18.6547 19.4982 18.75 19.5C19.125 19.5 19.5 19.125 19.5 18.75C19.5 18.375 19.125 18 18.75 18Z" fill="black"/>
</svg>
