<svg width="32" height="32" viewBox="0 0 32 32" fill="none" xmlns="http://www.w3.org/2000/svg">
<circle cx="16" cy="16" r="16" fill="black"/>
<path d="M16 8C17.0609 8 18.0783 8.42143 18.8284 9.17157C19.5786 9.92172 20 10.9391 20 12C20 13.0609 19.5786 14.0783 18.8284 14.8284C18.0783 15.5786 17.0609 16 16 16C14.9391 16 13.9217 15.5786 13.1716 14.8284C12.4214 14.0783 12 13.0609 12 12C12 10.9391 12.4214 9.92172 13.1716 9.17157C13.9217 8.42143 14.9391 8 16 8ZM16 18C20.42 18 24 19.79 24 22V24H8V22C8 19.79 11.58 18 16 18Z" fill="white"/>
</svg>
